# xmcd CD database file
#
# Track frame offsets:
#	150
#	13982
#	27162
#	44615
#	72099
#	85933
#	109600
#	134255
#	157954
#	181388
#	224591
#	237366
#	251766
#	274171
#	293336
#
# Disc length: 4089 seconds
#
# Revision: 0
# Processed by: cddbd v1.5.2PL0 Copyright (c) Steve Scherf et al.
# Submitted via: CDex 1.51
#
DISCID=d60ff70f
DTITLE=Van Morrison - The Collection
DYEAR=2006
DGENRE=Blues
TTITLE0=Brown Eyed Girl
TTITLE1=The Smile You Smile
TTITLE2=Spanish Rose
TTITLE3=Beside You
TTITLE4=Ro Ro Rosey
TTITLE5=Madame George
TTITLE6=The Back Room
TTITLE7=Who Drove The Red Sports Car
TTITLE8=He Ain´t Give You None
TTITLE9=T B Sheets
TTITLE10=Send Your Mind
TTITLE11=Chick-A-Boom
TTITLE12=It´s All Right
TTITLE13=Joe Harper Saturday Morning
TTITLE14=Good Bye Baby (Good Bye)
EXTD=YEAR: 2006
EXTT0=
EXTT1=
EXTT2=
EXTT3=
EXTT4=
EXTT5=
EXTT6=
EXTT7=
EXTT8=
EXTT9=
EXTT10=
EXTT11=
EXTT12=
EXTT13=
EXTT14=
PLAYORDER=
